<?xml version="1.0" encoding="utf-8"?>
<!-- Generator: Adobe Illustrator 27.0.0, SVG Export Plug-In . SVG Version: 6.00 Build 0)  -->
<svg version="1.1" id="Шар_1" xmlns="http://www.w3.org/2000/svg" xmlns:xlink="http://www.w3.org/1999/xlink" x="0px" y="0px"
	 viewBox="0 0 2500 436.26" style="enable-background:new 0 0 2500 436.26;" xml:space="preserve">
<style type="text/css">
	.st0{fill-rule:evenodd;clip-rule:evenodd;}
</style>
<g>
	<path class="st0" d="M1999.56,330.79v-95.7h88.66v-19.14h-88.66v-96.04c27.86-3.35,59.1-3.35,92.01,0l2.02-17.47h-125.6v233.42
		l-71.2-83.62v-15.45c32.9-10.41,50.39-34.91,50.39-73.21c0-38.29-39.97-61.13-73.21-61.13h-79.92v250.87h38.27v-235.1
		c34.93,0,71.2,12.09,71.2,50.71c0,38.27-19.16,57.43-48.71,66.16l1.7,15.45L1968,381.16l45.34,8.74l-31.26-36.59h111.51
		l20.82-45.34C2076.14,330.79,2036.17,337.84,1999.56,330.79L1999.56,330.79z M1757.44,102.43h-19.16V245.5
		c0,52.06,0,94.03-45.34,94.03c-41.97,0-50.36-24.51-50.36-90.67V102.43h-29.9V255.9c0,67.83,10.74,109.48,80.26,109.48
		c66.17,0,64.5-78.23,64.5-113.16V102.43z M954.8,353.3h29.57V102.43H954.8V353.3z M1529.4,102.43l-12.44,23.19l-120.23,227.7h36.63
		l48.69-101.09h59.43L1564,353.32h36.6l-64.47-250.87h-6.72v-0.02H1529.4z M1516.96,224.35h-20.8l20.8-45.68l5.4-11.75l15.42,57.43
		H1516.96z"/>
	<path class="st0" d="M1362.17,415.08l88-405.67h-36.63l-19.13,93.02h-183.35V294.2l-162.2-191.77h-22.5V353.3h22.5V161.87
		l162.19,191.43h25.85V123.61c17.46-5.38,31.57-5.38,47.02,3.35v226.36h29.21V126.96c14.14-11.43,49.04-12.1,74.9,5.37
		l-59.78,303.93l188.72-4.03l17.48-0.34l7.04-34.25l-24.53,2.35L1362.17,415.08L1362.17,415.08z M874.91,102.43l-12.44,23.5
		l-90.33,173.29c-3.71-13.77-8.74-25.86-17.46-34.58C719.75,217.61,636.12,158.17,631.1,97.38c-3.71-43.66,29.53-74.89,73.2-78.25
		c31.22-2.01,74.9,24.19,86.98,48.7l27.87-17.46C796.31,10.4,735.52,0,700.59,0c-29.55,0-59.09,18.81-79.6,40.28
		c-16.11,16.47-26.85,34.6-28.2,46.68v19.16c-55.76-20.82-120.23-5.38-116.86,71.19c3.7,45.34,81.93,73.21,92.34,99.4
		c10.41,24.51,17.46,57.42-31.24,59.12c-40.3,3.68-55.74-24.19-55.74-27.87c-17.46,22.83-104.42,33.23-113.17,22.83v-97.71h88.66
		v-19.14h-88.66v-94.03c27.87-3.35,59.13-3.35,92.36,0l1.69-19.14h-125.6v1.67h-10.41L237.5,282.12l-31.57-179.68h-10.41
		l69.86-94.02h-33.23L115.6,181.03h-10.4L61.53,8.42H31.98l38.29,207.53L28.62,426.51h32.9l50.37-208.89l66.5-88.99l39.97,224.68
		h12.09l106.12-214.27v214.27h125.6l10.41-17.47c15.77,15.77,38.29,17.47,59.1,17.47h19.16v47c17.46,15.43,42.66,28.2,70.17,34.25
		c47.03,11.09,100.78,3.37,133.68-39.29c8.72-12.43,13.76-26.2,17.46-41.96h7.06l48.69-101.09H887l22.49,101.09h36.61l-64.49-250.87
		h-6.71L874.91,102.43L874.91,102.43z M662.31,424.82c-17.12-0.67-30.54-3-41.32-7.38c-29.21-11.43-41.31-35.59-61.45-65.82
		c59.12-7.06,66.17-43.64,47.03-86.96c-15.78-31.58-104.45-78.6-104.45-109.83c0-52.4,69.53-52.4,92.34-7.06l3.36-12.09
		c5.38,15.11,13.44,28.55,23.16,40.97c31.92,41.62,81.61,72.86,105.81,115.85C761.72,357,721.42,424.82,662.31,424.82L662.31,424.82
		z M862.47,224.35h-20.82l20.82-45.68l5.38-11.75l15.77,57.43H862.47L862.47,224.35z M2326.67,102.43h-25.86V294.2l-162.2-191.77
		h-22.52V353.3h22.52V161.87l162.2,191.43h25.86V123.61c17.46-5.38,31.57-5.38,46.99,3.35v226.36h29.9V126.96
		c15.45-12.1,34.6-10.4,67.83,1.67v-26.2L2326.67,102.43L2326.67,102.43z"/>
</g>
</svg>
