<?xml version="1.0" encoding="utf-8"?>
<!-- Generator: Adobe Illustrator 27.0.0, SVG Export Plug-In . SVG Version: 6.00 Build 0)  -->
<svg version="1.1" id="Шар_1" xmlns="http://www.w3.org/2000/svg" xmlns:xlink="http://www.w3.org/1999/xlink" x="0px" y="0px"
	 viewBox="0 0 100 100" style="enable-background:new 0 0 100 100;" xml:space="preserve">
<path d="M43.57,96.23c-0.58,0-0.12-1.74-0.12-1.74l2.54-10.58c10.69-2.06,13.57-10.57,13.67-16.2c0.18-6.35-6.63-12.63-6.63-12.63
	l4.53-18.66h-7.1c0.9,1.59,0.38,3.11,0.38,3.11l-2.22,10.24l-1.96-2.36c0,0,1.55-7.1,2.28-10.4c0.73-3.29,2.16-5.46,2.16-5.46
	l6.03-8.43c5.04,2.92,6.65,6.69,6.65,6.69l1.29-5.12c-2.7-2.56-6.59-3.65-6.59-3.65L69.72,5.16c1.63-2.46,3.41-3.37,3.41-3.37h-4.96
	L56.24,20.32c-5.51-1.51-10.76,0.08-10.76,0.08L39.84,1.79h-4.8c0.95,0.36,1.59,2.75,1.59,2.75l2.96,11.85l1.54,5.83
	c-5.58,3.68-7.58,8.77-7.74,13.67c-0.16,4.89,2.88,8.28,2.88,8.28l4.89,5.56c0,0-1.3,7.35-1.85,10.74
	c-0.56,3.39-1.88,3.62-1.88,3.62h6.67c-1.06-0.66-0.42-3.33-0.42-3.33l1.43-6.9l2.1,2.3l-5.64,25.91
	c-10.08-0.99-13.25-10.24-13.25-10.24l-1.47,6.07c6.23,6.39,14.25,6.39,14.25,6.39s-2.06,9.52-2.42,11.23
	c-0.36,1.71-1.39,2.7-1.39,2.7h31.19l2.94-5c-12.38,3.02-22.54,3.02-22.54,3.02S44.15,96.23,43.57,96.23L43.57,96.23z M43.61,35.83
	l-1.15,6.78c0,0-4.37-4.13-4.37-9.21c0-5.08,3.65-8.69,3.65-8.69s1.29,4.81,1.86,7.3C43.99,33.67,43.61,35.83,43.61,35.83
	L43.61,35.83z M55.01,22.37l-6.16,9.39l-2.86-9.39C45.99,22.37,49.96,20.36,55.01,22.37L55.01,22.37z M51.47,61.07
	c4.13,3.93,3.89,9.6,3.89,9.6C55.2,80,46.55,81.82,46.55,81.82L51.47,61.07z"/>
</svg>
